<svg xmlns="http://www.w3.org/2000/svg" width="40" height="40" viewBox="0 0 40 40" fill="none"><style>.a{fill:#131D33;}</style><path d="M18.4 30.7C17.9 30.7 17.6 31 17.6 31.5V31.9C17.6 32.3 17.9 32.7 18.4 32.7 18.8 32.7 19.2 32.3 19.2 31.9V31.5C19.2 31 18.8 30.7 18.4 30.7Z" class="a"/><path d="M38.5 24.5L36.1 22.5C36.2 21.6 36.2 20.8 36.2 20 36.2 19.2 36.2 18.4 36.1 17.5L38.5 15.5C39.3 14.9 39.5 13.8 39 12.9L35.7 7.1C35.3 6.5 34.6 6.1 33.9 6.1 33.6 6.1 33.4 6.1 33.1 6.2L30.2 7.3C28.9 6.3 27.4 5.5 25.9 4.9L25.4 1.7C25.2 0.7 24.4 0 23.3 0H16.7C15.6 0 14.8 0.7 14.6 1.7L14.1 4.9C12.6 5.5 11.1 6.3 9.8 7.3L6.9 6.2C6.6 6.1 6.4 6.1 6.1 6.1 5.4 6.1 4.7 6.5 4.3 7.1L1 12.9C0.5 13.8 0.7 14.9 1.5 15.5L3.9 17.5C3.8 18.4 3.8 19.2 3.8 20 3.8 20.8 3.8 21.6 3.9 22.5L1.5 24.5C0.7 25.1 0.5 26.2 1 27.1L4.3 32.9C4.7 33.5 5.4 33.9 6.1 33.9 6.4 33.9 6.6 33.9 6.9 33.8L9.8 32.7C11.1 33.7 12.6 34.5 14.1 35.1L14.6 38.3C14.8 39.3 15.6 40 16.7 40H23.3C24.4 40 25.2 39.3 25.4 38.3L25.9 35.1C27.4 34.5 28.9 33.7 30.2 32.7L33.1 33.8C33.4 33.9 33.6 33.9 33.9 33.9 34.6 33.9 35.3 33.5 35.7 32.9L39 27.1C39.5 26.2 39.3 25.1 38.5 24.5ZM23.3 38.4H19.2V34.5C19.2 34.1 18.8 33.7 18.4 33.7 17.9 33.7 17.6 34.1 17.6 34.5V38.4H16.7V29.4C17.8 29.8 18.9 30 20 30 20 30 20.1 30 20.1 30 21.2 30 22.3 29.8 23.4 29.4V38.4H23.4C23.4 38.4 23.4 38.4 23.3 38.4ZM20.1 28.4H20C15.4 28.4 11.7 24.6 11.7 20 11.7 17.3 13 14.9 15.1 13.3V19.3C15.1 19.5 15.2 19.8 15.5 20L19.6 22.5C19.9 22.6 20.2 22.6 20.5 22.5L24.6 20C24.9 19.8 25 19.5 25 19.3V13.3C27.1 14.9 28.4 17.3 28.4 20 28.4 22.2 27.5 24.3 26 25.9 24.4 27.5 22.3 28.4 20.1 28.4ZM37.6 26.3L34.2 32.1C34.1 32.3 33.9 32.3 33.7 32.3L30.3 31C30 30.9 29.7 30.9 29.5 31.1 28.2 32.3 26.7 33.1 25 33.7V28.7C25.8 28.2 26.5 27.7 27.1 27.1 29 25.2 30 22.7 30 20 30 16.2 28 12.8 24.6 11.1 24.3 11 24 11 23.8 11.1 23.6 11.3 23.4 11.6 23.4 11.8V18.8L20.1 20.8 16.7 18.8V11.8C16.7 11.6 16.5 11.3 16.3 11.1 16.1 11 15.8 11 15.5 11.1 12.1 12.8 10.1 16.2 10.1 20 10.1 22.7 11.1 25.2 13 27.1 13.7 27.7 14.3 28.2 15.1 28.7V33.8C13.4 33.2 11.9 32.3 10.5 31.1 10.4 31 10.2 30.9 10 30.9 9.9 30.9 9.8 30.9 9.7 31L6.3 32.3C6.2 32.3 6.2 32.3 6.1 32.3 6 32.3 5.8 32.2 5.8 32.1L2.4 26.3C2.3 26.1 2.4 25.9 2.5 25.7L5.3 23.4C5.6 23.2 5.7 22.9 5.6 22.6 5.5 21.8 5.4 20.9 5.4 20 5.4 19.1 5.5 18.2 5.6 17.4 5.7 17.1 5.6 16.8 5.3 16.6L2.5 14.3C2.4 14.1 2.3 13.9 2.4 13.7L5.8 7.9C5.9 7.7 6.1 7.7 6.3 7.7L9.7 9C10 9.1 10.3 9.1 10.5 8.9 11.9 7.7 13.4 6.8 15.1 6.2 15.4 6.1 15.6 5.9 15.6 5.6L16.2 2C16.3 1.8 16.5 1.6 16.7 1.6H23.3C23.6 1.6 23.7 1.8 23.8 2L24.4 5.6C24.4 5.9 24.6 6.1 24.9 6.2 26.6 6.8 28.1 7.7 29.5 8.9 29.7 9.1 30 9.1 30.3 9L33.7 7.7C33.8 7.7 33.8 7.7 33.9 7.7 34 7.7 34.2 7.8 34.2 7.9L37.6 13.7C37.7 13.9 37.6 14.1 37.5 14.3L34.7 16.6C34.4 16.8 34.3 17.1 34.4 17.4 34.5 18.2 34.6 19.1 34.6 20 34.6 20.9 34.5 21.8 34.4 22.6 34.3 22.9 34.4 23.2 34.7 23.4L37.5 25.7C37.6 25.9 37.7 26.1 37.6 26.3Z" class="a"/></svg>