<svg xmlns="http://www.w3.org/2000/svg" width="25" height="25" viewBox="0 0 25 25" fill="none"><g clip-path="url(#clip0)"><path d="M24.3 9.3C24.1 9.1 23.8 9.1 23.6 9.3L10.4 22.5C9.4 23.5 8.1 24 6.7 24 5.3 24 4 23.5 3.1 22.5 2.1 21.5 1.5 20.2 1.5 18.9 1.5 17.5 2.1 16.2 3.1 15.2L16.3 2C17.7 0.6 19.9 0.7 21.4 2.2 22.9 3.7 23 5.9 21.6 7.3L9.2 19.7C8.5 20.4 7.4 20.4 6.7 19.7 6 19 6 17.9 6.7 17.2L15.1 8.8C15.3 8.6 15.3 8.3 15.1 8.1 14.9 7.9 14.6 7.9 14.4 8.1L6 16.5C4.9 17.6 4.9 19.3 6 20.4 7 21.5 8.8 21.5 9.9 20.4L22.3 8C24.1 6.2 24 3.4 22.1 1.5 20.2-0.4 17.4-0.5 15.6 1.3L2.4 14.5C1.2 15.7 0.6 17.2 0.6 18.9 0.6 20.5 1.2 22 2.4 23.2 3.5 24.4 5.1 25 6.7 25 8.4 25 9.9 24.4 11.1 23.2L24.3 10C24.5 9.8 24.5 9.5 24.3 9.3Z" fill="#C4C4C4"/></g><defs><clipPath><rect width="25" height="25" fill="white"/></clipPath></defs></svg>