<svg width="30" height="20" viewBox="0 0 30 20" fill="none" xmlns="http://www.w3.org/2000/svg">
<g clip-path="url(#clip0)">
<path d="M29.1392 7.44068C28.912 7.28919 28.5447 7.28919 28.3174 7.44068L12.4547 18.0159C11.2853 18.7954 9.72487 19.2243 8.0592 19.2243C6.39296 19.2243 4.8319 18.7954 3.66315 18.0159C2.49439 17.2363 1.85044 16.196 1.85044 15.0852C1.85044 13.9747 2.49381 12.934 3.66315 12.1548L19.5253 1.57927C21.209 0.457207 23.8522 0.525786 25.6736 1.73929C27.4945 2.95319 27.5979 4.71572 25.9143 5.83817L11.0128 15.7729C10.1799 16.3281 8.82346 16.3285 7.98888 15.7729C7.15547 15.2169 7.15547 14.3126 7.98888 13.757L18.0834 7.02727C18.3107 6.87577 18.3107 6.6309 18.0834 6.47941C17.8562 6.32791 17.4889 6.32791 17.2616 6.47941L7.16709 13.2087C5.88036 14.0665 5.88036 15.4621 7.16709 16.3204C8.45499 17.179 10.549 17.1774 11.8346 16.3204L26.7366 6.38564C28.8887 4.95051 28.7853 2.71723 26.496 1.19105C24.2073 -0.33475 20.8568 -0.404104 18.7041 1.03103L2.84078 11.6066C1.45175 12.5322 0.6875 13.7674 0.6875 15.0852C0.6875 16.4029 1.45175 17.6385 2.84078 18.5641C4.22922 19.4901 6.08203 19.9996 8.0592 19.9996C10.0352 19.9996 11.8886 19.4901 13.2771 18.5641L29.1392 7.98854C29.3665 7.83705 29.3665 7.59179 29.1392 7.44068Z" fill="#546E7A"/>
</g>
<defs>
<clipPath id="clip0">
<rect width="30" height="20" fill="white"/>
</clipPath>
</defs>
</svg>
