<svg width="20" height="20" viewBox="0 0 20 20" fill="none" xmlns="http://www.w3.org/2000/svg">
<path d="M19.0013 1.33333H16.668V0.333333C16.668 0.149 16.519 0 16.3346 0H14.0013C13.817 0 13.668 0.149 13.668 0.333333V1.33333H6.33464V0.333333C6.33464 0.149 6.18564 0 6.0013 0H3.66797C3.48364 0 3.33464 0.149 3.33464 0.333333V1.33333H1.0013C0.816969 1.33333 0.667969 1.48233 0.667969 1.66667V5.33333V19.6667C0.667969 19.851 0.816969 20 1.0013 20H19.0013C19.1856 20 19.3346 19.851 19.3346 19.6667V5.33333V1.66667C19.3346 1.48233 19.1856 1.33333 19.0013 1.33333ZM14.3346 0.666667H16.0013V1.66667V2.66667H14.3346V1.66667V0.666667ZM4.0013 0.666667H5.66797V1.66667V2.66667H4.0013V1.66667V0.666667ZM1.33464 2H3.33464V3C3.33464 3.18433 3.48364 3.33333 3.66797 3.33333H6.0013C6.18564 3.33333 6.33464 3.18433 6.33464 3V2H13.668V3C13.668 3.18433 13.817 3.33333 14.0013 3.33333H16.3346C16.519 3.33333 16.668 3.18433 16.668 3V2H18.668V5H1.33464V2ZM1.33464 19.3333V5.66667H18.668V19.3333H1.33464Z" fill="black"/>
<path d="M12.668 7.66699H10.3346H9.66797H7.33464H6.66797H3.66797V10.667V11.3337V13.667V14.3337V17.3337H6.66797H7.33464H9.66797H10.3346H12.668H13.3346H16.3346V14.3337V13.667V11.3337V10.667V7.66699H13.3346H12.668ZM10.3346 8.33366H12.668V10.667H10.3346V8.33366ZM12.668 13.667H10.3346V11.3337H12.668V13.667ZM7.33464 11.3337H9.66797V13.667H7.33464V11.3337ZM7.33464 8.33366H9.66797V10.667H7.33464V8.33366ZM4.33464 8.33366H6.66797V10.667H4.33464V8.33366ZM4.33464 11.3337H6.66797V13.667H4.33464V11.3337ZM6.66797 16.667H4.33464V14.3337H6.66797V16.667ZM9.66797 16.667H7.33464V14.3337H9.66797V16.667ZM12.668 16.667H10.3346V14.3337H12.668V16.667ZM15.668 16.667H13.3346V14.3337H15.668V16.667ZM15.668 13.667H13.3346V11.3337H15.668V13.667ZM15.668 8.33366V10.667H13.3346V8.33366H15.668Z" fill="black"/>
</svg>
