<svg xmlns="http://www.w3.org/2000/svg" width="30" height="30" viewBox="0 0 30 30" fill="none"><style>.a{fill:#607D8B;}</style><path d="M27.6 1.8H2.4C1.1 1.8 0 2.9 0 4.3V19C0 20.3 1.1 21.4 2.4 21.4H3.9V27.5C3.9 27.7 4 28 4.3 28.1 4.4 28.1 4.5 28.2 4.6 28.2 4.8 28.2 4.9 28.1 5.1 28L11.6 21.4H27.6C28.9 21.4 30 20.3 30 19V4.3C30 2.9 28.9 1.8 27.6 1.8ZM27.6 20H11.3C11.1 20 11 20.1 10.8 20.2 10.8 20.2 10.8 20.2 10.8 20.2 10.8 20.2 10.8 20.2 10.8 20.2L5.3 25.8V20.7C5.3 20.7 5.3 20.7 5.3 20.7 5.2 20.3 4.9 20 4.6 20H2.4C1.9 20 1.4 19.6 1.4 19V4.3C1.4 3.7 1.9 3.2 2.4 3.2H27.6C28.1 3.2 28.6 3.7 28.6 4.3V19C28.6 19.6 28.1 20 27.6 20Z" class="a"/><path d="M10.2 6.9H6.1C5.7 6.9 5.4 7.3 5.4 7.6 5.4 8 5.7 8.3 6.1 8.3H10.2C10.6 8.3 10.9 8 10.9 7.6 10.9 7.3 10.6 6.9 10.2 6.9Z" class="a"/><path d="M17.4 10.9H6.1C5.7 10.9 5.4 11.2 5.4 11.6 5.4 12 5.7 12.3 6.1 12.3H17.4C17.8 12.3 18.1 12 18.1 11.6 18.1 11.2 17.8 10.9 17.4 10.9Z" class="a"/><path d="M23.9 6.9H14.3C13.9 6.9 13.6 7.3 13.6 7.6 13.6 8 13.9 8.3 14.3 8.3H23.9C24.3 8.3 24.6 8 24.6 7.6 24.6 7.3 24.3 6.9 23.9 6.9Z" class="a"/><path d="M23.9 10.9H21.3C21 10.9 20.6 11.2 20.6 11.6 20.6 12 21 12.3 21.3 12.3H23.9C24.3 12.3 24.6 12 24.6 11.6 24.6 11.2 24.3 10.9 23.9 10.9Z" class="a"/><path d="M12.4 14.9H6.1C5.7 14.9 5.4 15.2 5.4 15.6 5.4 16 5.7 16.3 6.1 16.3H12.4C12.8 16.3 13.1 16 13.1 15.6 13.1 15.2 12.8 14.9 12.4 14.9Z" class="a"/><path d="M23.9 14.9H16.2C15.8 14.9 15.5 15.2 15.5 15.6 15.5 16 15.8 16.3 16.2 16.3H23.9C24.3 16.3 24.6 16 24.6 15.6 24.6 15.2 24.3 14.9 23.9 14.9Z" class="a"/></svg>