<svg xmlns="http://www.w3.org/2000/svg" width="30" height="30" viewBox="0 0 30 30" fill="none"><style>.a{fill:#607D8B;}</style><path d="M10 16.5H9V17.5H10V16.5Z" class="a"/><path d="M10 18.5H9V19.5H10V18.5Z" class="a"/><path d="M10 20.5H9V21.5H10V20.5Z" class="a"/><path d="M10 14.5H9V15.5H10V14.5Z" class="a"/><path d="M10 12.5H9V13.5H10V12.5Z" class="a"/><path d="M10 10.5H9V11.5H10V10.5Z" class="a"/><path d="M10 8.5H9V9.5H10V8.5Z" class="a"/><path d="M3 8.5H2V9.5H3V8.5Z" class="a"/><path d="M28 8.5H27V9.5H28V8.5Z" class="a"/><path d="M28 20.5H27V21.5H28V20.5Z" class="a"/><path d="M3 20.5H2V21.5H3V20.5Z" class="a"/><path d="M29.5 12.5C29.8 12.5 30 12.3 30 12V7C30 6.7 29.8 6.5 29.5 6.5H0.5C0.2 6.5 0 6.7 0 7V12C0 12.3 0.2 12.5 0.5 12.5 1.9 12.5 3 13.6 3 15 3 16.4 1.9 17.5 0.5 17.5 0.2 17.5 0 17.7 0 18V23C0 23.3 0.2 23.5 0.5 23.5H29.5C29.8 23.5 30 23.3 30 23V18C30 17.7 29.8 17.5 29.5 17.5 28.1 17.5 27 16.4 27 15 27 13.6 28.1 12.5 29.5 12.5ZM26 15.5C26.3 17 27.5 18.2 29 18.5V22.5H1V18.5C2.9 18.2 4.2 16.4 4 14.5 3.7 13 2.5 11.8 1 11.5V7.5H29V11.5C27.1 11.8 25.8 13.6 26 15.5Z" class="a"/><path d="M15 10C13.9 10 13 10.9 13 12 13 13.1 13.9 14 15 14 16.1 14 17 13.1 17 12 17 10.9 16.1 10 15 10ZM15 13C14.4 13 14 12.6 14 12 14 11.4 14.4 11 15 11 15.6 11 16 11.4 16 12 16 12.6 15.6 13 15 13Z" class="a"/><path d="M21 16C19.9 16 19 16.9 19 18 19 19.1 19.9 20 21 20 22.1 20 23 19.1 23 18 23 16.9 22.1 16 21 16ZM21 19C20.4 19 20 18.6 20 18 20 17.4 20.4 17 21 17 21.6 17 22 17.4 22 18 22 18.6 21.6 19 21 19Z" class="a"/><path d="M21.6 10.6L13.6 18.6 14.4 19.4 22.4 11.4 21.6 10.6Z" class="a"/></svg>