<svg width="20" height="20" viewBox="0 0 20 20" fill="none" xmlns="http://www.w3.org/2000/svg">
<path d="M15.8025 2.39617H12.6893C12.534 1.04952 11.3883 0 10.0006 0C8.61301 0 7.46743 1.04948 7.31213 2.39617H4.1988C2.93892 2.39617 1.91406 3.42131 1.91406 4.68114V4.79839C1.91406 5.76114 2.51353 6.58518 3.35801 6.92094V17.715C3.35801 18.9749 4.38299 20 5.64278 20H14.3585C15.6184 20 16.6433 18.9748 16.6433 17.715V6.92098C17.4877 6.58518 18.0872 5.76114 18.0872 4.79843V4.68119C18.0872 3.42131 17.0623 2.39617 15.8025 2.39617ZM10.0006 1.08364C10.7898 1.08364 11.4486 1.64932 11.5943 2.39617H8.40718C8.5529 1.64928 9.21169 1.08364 10.0006 1.08364ZM15.5596 17.715C15.5596 18.3774 15.0207 18.9164 14.3585 18.9164H5.64274C4.98055 18.9164 4.44161 18.3774 4.44161 17.715V7.08336H15.5596V17.715ZM17.0036 4.79839C17.0036 5.46078 16.4646 5.99976 15.8024 5.99976H4.1988C3.53661 5.99976 2.99766 5.46078 2.99766 4.79839V4.68114C2.99766 4.01875 3.53661 3.47977 4.1988 3.47977H15.8025C16.4647 3.47977 17.0036 4.01875 17.0036 4.68114V4.79839H17.0036Z" fill="#546E7A"/>
<path d="M7.09258 17.5298C7.39182 17.5298 7.63438 17.2872 7.63438 16.9881V10.8875C7.63438 10.5884 7.39178 10.3457 7.09258 10.3457C6.79339 10.3457 6.55078 10.5884 6.55078 10.8875V16.9881C6.55074 17.2873 6.79335 17.5298 7.09258 17.5298Z" fill="#546E7A"/>
<path d="M10.0027 17.5298C10.302 17.5298 10.5446 17.2872 10.5446 16.9881V10.8875C10.5446 10.5884 10.3019 10.3457 10.0027 10.3457C9.70354 10.3457 9.46094 10.5884 9.46094 10.8875V16.9881C9.46094 17.2873 9.7035 17.5298 10.0027 17.5298Z" fill="#546E7A"/>
<path d="M12.9051 17.5298C13.2043 17.5298 13.4469 17.2872 13.4469 16.9881V10.8875C13.4469 10.5884 13.2043 10.3457 12.9051 10.3457C12.6058 10.3457 12.3633 10.5884 12.3633 10.8875V16.9881C12.3632 17.2873 12.6059 17.5298 12.9051 17.5298Z" fill="#546E7A"/>
</svg>
