<svg xmlns="http://www.w3.org/2000/svg" width="19" height="19" viewBox="0 0 19 19" fill="none"><style>.a{fill:black;}</style><g clip-path="url(#clip0)"><path d="M17.5 11.9C17.3 11.9 17.1 12.1 17.1 12.4V16.6C17.1 17.4 16.4 18 15.6 18H2.4C1.6 18 0.9 17.4 0.9 16.6V4.3C0.9 3.5 1.6 2.9 2.4 2.9H6.6C6.8 2.9 7 2.6 7 2.4 7 2.1 6.8 1.9 6.6 1.9H2.4C1.1 1.9 0 3 0 4.3V16.6C0 17.9 1.1 19 2.4 19H15.6C16.9 19 18 17.9 18 16.6V12.4C18 12.1 17.8 11.9 17.5 11.9Z" class="a"/><path d="M17.8 0.7C17-0.1 15.6-0.1 14.8 0.7L6.4 9.1C6.3 9.2 6.3 9.3 6.2 9.3L5.1 13.4C5.1 13.5 5.1 13.7 5.3 13.8 5.4 13.9 5.6 14 5.7 13.9L9.7 12.8C9.8 12.8 9.9 12.8 9.9 12.7L18.4 4.3C19.2 3.4 19.2 2.1 18.4 1.3L17.8 0.7ZM7.4 9.4L14.3 2.5 16.5 4.8 9.6 11.7 7.4 9.4ZM7 10.3L8.7 12.1 6.3 12.8 7 10.3ZM17.7 3.6L17.2 4.1 15 1.9 15.5 1.4C15.9 0.9 16.7 0.9 17.2 1.4L17.7 1.9C18.2 2.4 18.2 3.1 17.7 3.6Z" class="a"/></g><defs><clipPath><rect width="19" height="19" fill="white"/></clipPath></defs></svg>