<svg xmlns="http://www.w3.org/2000/svg" width="30" height="30" viewBox="0 0 30 30" fill="none"><style>.a{fill:#607D8B;}</style><path d="M15 0C6.7 0 0 6.7 0 15 0 23.3 6.7 30 15 30 23.3 30 30 23.3 30 15 30 6.7 23.3 0 15 0ZM15 28.4C11.3 28.4 8 26.9 5.6 24.5 4.6 23.5 3.8 22.4 3.1 21.2 2.2 19.3 1.6 17.2 1.6 15 1.6 7.6 7.6 1.6 15 1.6 18.5 1.6 21.7 3 24.1 5.2 25.3 6.3 26.3 7.7 27.1 9.2 27.9 11 28.4 12.9 28.4 15 28.4 22.4 22.4 28.4 15 28.4Z" class="a"/><path d="M10.1 13.3C11 13.3 11.7 12.6 11.7 11.7 11.7 10.8 11 10 10.1 10 9.2 10 8.5 10.8 8.5 11.7 8.5 12.6 9.2 13.3 10.1 13.3Z" class="a"/><path d="M20.1 13.3C21 13.3 21.8 12.6 21.8 11.7 21.8 10.8 21 10 20.1 10 19.2 10 18.5 10.8 18.5 11.7 18.5 12.6 19.2 13.3 20.1 13.3Z" class="a"/><path d="M15 23.3C18.1 23.3 21.1 21.7 22.8 19L21.5 18.2C19.9 20.6 17 22 14.1 21.6 11.9 21.4 9.8 20.1 8.5 18.2L7.2 19C8.7 21.4 11.2 22.9 13.9 23.3 14.3 23.3 14.6 23.3 15 23.3Z" class="a"/></svg>