<svg xmlns="http://www.w3.org/2000/svg" width="30" height="30" viewBox="0 0 30 30" fill="none"><style>.a{fill:#607D8B;}</style><g clip-path="url(#clip0)"><path d="M15 7.9L25.7 16.7C25.7 16.7 25.7 16.7 25.7 16.8 25.7 16.8 25.7 16.8 25.7 16.8V25.7C25.7 26.1 25.6 26.3 25.4 26.6 25.1 26.8 24.9 26.9 24.5 26.9H17.4V19.8H12.6V26.9H5.5C5.2 26.9 4.9 26.8 4.6 26.6 4.4 26.3 4.3 26.1 4.3 25.7V16.8C4.3 16.8 4.3 16.7 4.3 16.7L15 7.9Z" class="a"/><path d="M0.2 14.7L4.3 11.3V3.7C4.3 3.5 4.3 3.4 4.4 3.3 4.6 3.2 4.7 3.1 4.9 3.1H8.4C8.6 3.1 8.8 3.2 8.9 3.3 9 3.4 9 3.5 9 3.7V7.3L13.6 3.5C14 3.2 14.5 3.1 15 3.1 15.5 3.1 16 3.2 16.4 3.5L29.8 14.7C29.9 14.8 30 14.9 30 15.1 30 15.3 30 15.4 29.9 15.5L28.7 16.9C28.6 17 28.5 17.1 28.3 17.1 28.2 17.1 28 17.1 27.9 17L15 6.2 2.1 17C2 17.1 1.9 17.1 1.7 17.1H1.7C1.5 17.1 1.4 17 1.3 16.9L0.1 15.5C0 15.4 0 15.3 0 15.1 0 14.9 0.1 14.8 0.2 14.7Z" class="a"/></g><defs><clipPath><rect width="30" height="30" transform="matrix(-1 0 0 1 30 0)" fill="white"/></clipPath></defs></svg>