<svg width="25" height="25" viewBox="0 0 25 25" fill="none" xmlns="http://www.w3.org/2000/svg">
<path d="M13.2146 10.838C12.9401 11.1124 12.9401 11.5526 13.2146 11.827C14.3486 12.961 14.3486 14.8044 13.2146 15.9384L7.25973 21.8933C6.12572 23.0273 4.28231 23.0273 3.1483 21.8933L2.25249 20.9975C1.11848 19.8635 1.11848 18.02 2.25249 16.886L8.20733 10.9312C8.48177 10.6567 8.48177 10.2166 8.20733 9.94216C7.93289 9.66772 7.49275 9.66772 7.21831 9.94216L1.26346 15.897C0.450497 16.71 0 17.7922 0 18.9417C0 20.0913 0.445319 21.1735 1.26346 21.9865L2.15928 22.8823C2.99814 23.7212 4.10108 24.1406 5.20402 24.1406C6.30696 24.1406 7.4099 23.7212 8.24876 22.8823L14.2036 16.9275C15.8813 15.2497 15.8813 12.5157 14.2036 10.838C13.9343 10.5635 13.489 10.5635 13.2146 10.838Z" fill="#546E7A"/>
<path d="M23.7414 3.01348L22.8456 2.11766C21.1679 0.439947 18.4338 0.439947 16.7561 2.11766L10.8013 8.07251C9.12354 9.75022 9.12354 12.4843 10.8013 14.162C11.0757 14.4364 11.5158 14.4364 11.7903 14.162C12.0647 13.8875 12.0647 13.4474 11.7903 13.173C10.6563 12.039 10.6563 10.1955 11.7903 9.06153L17.7451 3.10668C18.8791 1.97267 20.7225 1.97267 21.8566 3.10668L22.7524 4.0025C23.8864 5.13651 23.8864 6.97992 22.7524 8.11393L16.7975 14.0688C16.5231 14.3432 16.5231 14.7834 16.7975 15.0578C16.9322 15.1924 17.1134 15.2649 17.2894 15.2649C17.4655 15.2649 17.6467 15.1976 17.7814 15.0578L23.7362 9.10295C24.5492 8.28999 24.9997 7.20776 24.9997 6.05822C24.9997 4.90867 24.5544 3.82644 23.7414 3.01348Z" fill="#546E7A"/>
</svg>
