<svg width="29" height="25" viewBox="0 0 29 25" fill="none" xmlns="http://www.w3.org/2000/svg">
<path d="M20.55 8.09948H20.036V6.95544C20.036 5.32642 18.7096 4 17.0805 4H10.8754C9.24635 4 7.91993 5.32642 7.91993 6.95544V8.09948H7.45153C5.82252 8.09948 4.49609 9.42591 4.49609 11.0549V15.8218C4.49609 17.4508 5.82252 18.7772 7.45153 18.7772H7.91578V22.5244C7.91578 23.3368 8.579 24 9.39143 24H18.5562C19.3686 24 20.0318 23.3368 20.0318 22.5244V18.7772H20.55C22.179 18.7772 23.5054 17.4508 23.5054 15.8218V11.0549C23.5054 9.42591 22.179 8.09948 20.55 8.09948ZM9.03495 6.95544C9.03495 5.94404 9.85982 5.11917 10.8712 5.11917H17.0723C18.0837 5.11917 18.9085 5.94404 18.9085 6.95544V8.09948H9.03495V6.95544ZM18.9127 22.5326C18.9127 22.7275 18.751 22.8891 18.5562 22.8891H9.39143C9.19661 22.8891 9.03495 22.7275 9.03495 22.5326V16.3523H18.9127V22.5326ZM22.3862 15.8259C22.3862 16.8373 21.5614 17.6622 20.55 17.6622H20.036V16.3523H20.7738C21.0847 16.3523 21.3334 16.1036 21.3334 15.7927C21.3334 15.4819 21.0847 15.2332 20.7738 15.2332H7.09506C6.78418 15.2332 6.53547 15.4819 6.53547 15.7927C6.53547 16.1036 6.78418 16.3523 7.09506 16.3523H7.91993V17.6622H7.45153C6.44014 17.6622 5.61526 16.8373 5.61526 15.8259V11.0591C5.61526 10.0477 6.44014 9.2228 7.45153 9.2228H20.55C21.5614 9.2228 22.3862 10.0477 22.3862 11.0591V15.8259Z" fill="black"/>
<path d="M10.3916 19.1045H17.517C17.8279 19.1045 18.0766 18.8558 18.0766 18.5449C18.0766 18.2341 17.8279 17.9854 17.517 17.9854H10.3916C10.0807 17.9854 9.83203 18.2341 9.83203 18.5449C9.83203 18.8558 10.0849 19.1045 10.3916 19.1045Z" fill="black"/>
<path d="M17.5602 20.2744H10.4307C10.1198 20.2744 9.87109 20.5231 9.87109 20.834C9.87109 21.1449 10.1198 21.3936 10.4307 21.3936H17.5561C17.8669 21.3936 18.1157 21.1449 18.1157 20.834C18.1157 20.5231 17.8669 20.2744 17.5602 20.2744Z" fill="black"/>
<path d="M20.5352 10.2959H19.3994C19.0885 10.2959 18.8398 10.5446 18.8398 10.8555C18.8398 11.1664 19.0885 11.4151 19.3994 11.4151H20.5352C20.8461 11.4151 21.0948 11.1664 21.0948 10.8555C21.0948 10.5446 20.8461 10.2959 20.5352 10.2959Z" fill="black"/>
</svg>
