<svg width="25" height="25" viewBox="0 0 25 25" fill="none" xmlns="http://www.w3.org/2000/svg">
<path d="M23.5464 11.0447C23.5464 4.95464 18.5918 0 12.5018 0C6.41172 0 1.45703 4.95464 1.45703 11.0447C1.45703 11.4065 1.75034 11.6998 2.11211 11.6998C2.47388 11.6998 2.76719 11.4064 2.76719 11.0447C2.76719 5.67705 7.13408 1.31021 12.5017 1.31021C17.8693 1.31021 22.2362 5.6771 22.2362 11.0447C22.2362 16.4123 17.8693 20.7792 12.5017 20.7792H11.3652L12.9903 18.9601C13.2313 18.6903 13.208 18.2762 12.9382 18.0351C12.6684 17.794 12.2542 17.8175 12.0132 18.0873L9.69014 20.6876C9.30986 21.1133 9.30986 21.7553 9.69014 22.181L12.0132 24.7813C12.1426 24.9262 12.3219 25 12.502 25C12.6573 25 12.8132 24.945 12.9382 24.8334C13.208 24.5924 13.2313 24.1782 12.9903 23.9084L11.3652 22.0894H12.5017C18.5918 22.0894 23.5464 17.1347 23.5464 11.0447Z" fill="#607D8B"/>
</svg>
