<svg width="30" height="30" viewBox="0 0 30 30" fill="none" xmlns="http://www.w3.org/2000/svg">
<g clip-path="url(#clip0)">
<path d="M0.556556 30H22.3353C22.6235 30 22.8273 29.734 22.8273 29.4457V18.1872L29.8004 11.2136C30.0058 11.0118 30.0088 10.6819 29.8073 10.4763L27.0325 7.69795C26.8239 7.4944 26.4909 7.49414 26.282 7.69744L22.8273 11.1313V5.83364C22.8329 5.6971 22.7829 5.56411 22.6892 5.4645L17.4173 0.168903C17.324 0.0664911 17.1939 0.00560462 17.0555 0H0.556556C0.268682 0 0.0664062 0.265965 0.0664062 0.554093V29.4459C0.0664062 29.734 0.268682 30 0.556556 30ZM17.213 18.6922L18.8205 20.2997L16.4057 21.107L17.213 18.6922ZM19.7852 19.7886L17.7238 17.7274L24.3443 11.1216L26.391 13.1683L19.7852 19.7886ZM26.667 8.80435L28.7083 10.8457L27.1278 12.4298L25.0831 10.3846L26.667 8.80435ZM17.6099 1.8136L21.0758 5.28261H17.6099V1.8136ZM1.10988 1.04348H16.5664V5.83364C16.5603 5.96561 16.6095 6.094 16.7027 6.1875C16.7957 6.28125 16.9236 6.33144 17.0555 6.32609H21.7838V12.1725L16.6021 17.3573C16.5473 17.4108 16.5065 17.4767 16.4834 17.5496L15.7476 19.7609H4.48157C4.19344 19.7609 3.95983 19.9945 3.95983 20.2826C3.95983 20.5707 4.19344 20.8043 4.48157 20.8043H15.3991L15.0847 21.7566C15.0221 21.9421 15.071 22.1474 15.2106 22.2847C15.2473 22.3214 15.2888 22.3696 15.3329 22.3696H4.48157C4.19344 22.3696 3.95983 22.6032 3.95983 22.8913C3.95983 23.1794 4.19344 23.413 4.48157 23.413H18.3731C18.6615 23.413 18.8949 23.1794 18.8949 22.8913C18.8949 22.6032 18.6615 22.3696 18.3731 22.3696H15.8498L19.9511 21.0099C20.0232 20.9862 20.0884 20.9447 20.1404 20.8897L21.7838 19.233V28.9565H1.10988V1.04348Z" fill="black"/>
<path d="M18.3703 24.9785H4.47877C4.19064 24.9785 3.95703 25.2121 3.95703 25.5003C3.95703 25.7884 4.19064 26.022 4.47877 26.022H18.3703C18.6587 26.022 18.8921 25.7884 18.8921 25.5003C18.8921 25.2121 18.6587 24.9785 18.3703 24.9785Z" fill="black"/>
<path d="M4.47877 18.1958H11.8486C12.137 18.1958 12.3703 17.9622 12.3703 17.6741C12.3703 17.386 12.137 17.1523 11.8486 17.1523H4.47877C4.19064 17.1523 3.95703 17.386 3.95703 17.6741C3.95703 17.9622 4.19064 18.1958 4.47877 18.1958Z" fill="black"/>
</g>
<defs>
<clipPath id="clip0">
<rect width="30" height="30" fill="white"/>
</clipPath>
</defs>
</svg>
