<svg xmlns="http://www.w3.org/2000/svg" width="25" height="25" viewBox="0 0 25 25" fill="none"><style>.a{fill:#546E7A;}</style><path d="M15.1 9.3C14.9 9.3 14.6 9.5 14.6 9.8 14.6 10 14.9 10.3 15.1 10.3 15.4 10.3 15.6 10 15.6 9.8 15.6 9.5 15.4 9.3 15.1 9.3Z" class="a"/><path d="M24.4 21.7L17.9 15.1C19 13.5 19.5 11.7 19.5 9.8 19.5 4.4 15.2 0 9.8 0 4.4 0 0 4.4 0 9.8 0 15.2 4.4 19.5 9.8 19.5 11.7 19.5 13.5 19 15.1 17.9L16.9 19.7C17 19.7 17 19.7 17 19.7L21.7 24.4C22 24.8 22.5 25 23 25 23.6 25 24.1 24.8 24.4 24.4 24.8 24.1 25 23.6 25 23 25 22.5 24.8 22 24.4 21.7ZM14.9 16.9C14.9 16.9 14.9 16.9 14.9 16.9 13.4 18 11.6 18.6 9.8 18.6 4.9 18.6 1 14.6 1 9.8 1 4.9 4.9 1 9.8 1 14.6 1 18.6 4.9 18.6 9.8 18.6 11.6 18 13.4 16.9 14.9 16.3 15.7 15.7 16.3 14.9 16.9ZM15.9 17.3C16.4 16.9 16.9 16.4 17.3 15.9L18.7 17.3C18.3 17.8 17.8 18.3 17.3 18.7L15.9 17.3ZM23.7 23.7C23.6 23.9 23.3 24 23 24 22.8 24 22.5 23.9 22.4 23.7L18 19.4C18.5 19 19 18.5 19.4 18L23.7 22.4C23.9 22.5 24 22.8 24 23 24 23.3 23.9 23.6 23.7 23.7Z" class="a"/><path d="M9.8 2C5.5 2 2 5.5 2 9.8 2 14.1 5.5 17.6 9.8 17.6 14.1 17.6 17.6 14.1 17.6 9.8 17.6 5.5 14.1 2 9.8 2ZM9.8 16.6C6 16.6 2.9 13.5 2.9 9.8 2.9 6 6 2.9 9.8 2.9 13.5 2.9 16.6 6 16.6 9.8 16.6 13.5 13.5 16.6 9.8 16.6Z" class="a"/><path d="M15.2 7.7C14.8 6.6 14.1 5.6 13.1 5 12.1 4.3 11 3.9 9.8 3.9 9.5 3.9 9.3 4.1 9.3 4.4 9.3 4.7 9.5 4.9 9.8 4.9 11.8 4.9 13.6 6.1 14.3 8 14.4 8.2 14.6 8.3 14.8 8.3 14.8 8.3 14.9 8.3 15 8.3 15.2 8.2 15.3 7.9 15.2 7.7Z" class="a"/></svg>