<svg xmlns="http://www.w3.org/2000/svg" width="40" height="36" viewBox="0 0 40 36" fill="none"><path d="M0 18C0.1 18.8 0.6 19.5 1.4 19.8L16 24.2 16.6 34.3C16.6 34.7 16.9 35 17.3 35.2 17.4 35.2 17.5 35.2 17.6 35.2 17.9 35.2 18.1 35.1 18.3 34.9L23.5 29.2 30.9 34.2C31.2 34.5 31.6 34.6 32 34.6 32.9 34.6 33.7 33.9 33.9 33L40 2C40.1 1.6 39.9 1.2 39.6 1 39.4 0.8 39 0.7 38.6 0.8L1.2 16.1C0.4 16.4 0 17.2 0 18ZM18.4 31.8L18.1 25.4 21.9 28 18.4 31.8ZM31.9 32.6L18.6 23.3 37.3 5.2 31.9 32.6ZM35.3 4.4L16.7 22.3 2.1 17.9 35.3 4.4Z" fill="#607D8B"/></svg>