<svg xmlns="http://www.w3.org/2000/svg" width="40" height="40" viewBox="0 0 40 40" fill="none"><path d="M32 28.6L25.6 25.4C25 25.1 24.7 24.5 24.7 23.8V21.6C24.8 21.4 25 21.2 25.1 20.9 26 19.8 26.6 18.5 27.1 17.1 28.1 16.6 28.7 15.7 28.7 14.7V12C28.7 11.4 28.4 10.7 28 10.3V6.7C28 6.3 28.2 4.2 26.6 2.4 25.2 0.8 23 0 20 0 17 0 14.8 0.8 13.4 2.4 11.8 4.2 12 6.3 12 6.7V10.3C11.6 10.7 11.3 11.4 11.3 12V14.7C11.3 15.5 11.7 16.2 12.3 16.7 12.9 19.2 14.2 21 14.7 21.6V23.8C14.7 24.4 14.3 25 13.8 25.3L7.8 28.6C5.9 29.6 4.7 31.6 4.7 33.8V36C4.7 39.2 14.7 40 20 40 25.3 40 35.3 39.2 35.3 36V34C35.3 31.7 34.1 29.6 32 28.6ZM34 36C34 36.9 29.1 38.7 20 38.7 10.9 38.7 6 36.9 6 36V33.8C6 32.1 6.9 30.6 8.4 29.7L14.4 26.5C15.4 25.9 16 24.9 16 23.8V21.1L15.8 20.9C15.8 20.9 14.2 18.9 13.6 16.2L13.5 15.9 13.3 15.8C12.9 15.5 12.7 15.1 12.7 14.7V12C12.7 11.6 12.8 11.3 13.1 11L13.3 10.8V6.7L13.3 6.6C13.3 6.6 13.1 4.7 14.4 3.2 15.5 2 17.4 1.3 20 1.3 22.6 1.3 24.5 2 25.6 3.2 26.9 4.7 26.7 6.6 26.7 6.6L26.7 10.8 26.9 11C27.2 11.3 27.3 11.6 27.3 12V14.7C27.3 15.2 27 15.8 26.4 15.9L26.1 16 25.9 16.4C25.5 17.8 24.9 19 24.1 20.2 23.9 20.5 23.7 20.7 23.5 20.9L23.3 21.1V23.8C23.3 25 24 26.1 25 26.6L31.4 29.8C33 30.6 34 32.2 34 34V36Z" fill="black"/></svg>