<svg width="35" height="35" viewBox="0 0 35 35" fill="none" xmlns="http://www.w3.org/2000/svg">
<g clip-path="url(#clip0)">
<path d="M25.0422 0H9.43822C8.13822 0 7.07422 1.063 7.07422 2.364V9.847V24.636V32.119C7.07422 33.42 8.13822 34.482 9.43822 34.482H25.0422C26.3422 34.482 27.4062 33.42 27.4062 32.119V24.636V9.847V2.364C27.4062 1.063 26.3422 0 25.0422 0ZM12.8032 31.76H10.2552C9.78622 31.76 9.40522 31.38 9.40522 30.911C9.40522 30.441 9.78622 30.06 10.2552 30.06H12.8032C13.2722 30.06 13.6532 30.441 13.6532 30.911C13.6532 31.38 13.2722 31.76 12.8032 31.76ZM12.8032 28.52H10.2552C9.78622 28.52 9.40522 28.139 9.40522 27.67C9.40522 27.201 9.78622 26.82 10.2552 26.82H12.8032C13.2722 26.82 13.6532 27.201 13.6532 27.67C13.6532 28.139 13.2722 28.52 12.8032 28.52ZM12.8032 25.28H10.2552C9.78622 25.28 9.40522 24.9 9.40522 24.431C9.40522 23.96 9.78622 23.58 10.2552 23.58H12.8032C13.2722 23.58 13.6532 23.96 13.6532 24.431C13.6532 24.9 13.2722 25.28 12.8032 25.28ZM12.8032 22.041H10.2552C9.78622 22.041 9.40522 21.66 9.40522 21.191C9.40522 20.722 9.78622 20.34 10.2552 20.34H12.8032C13.2722 20.34 13.6532 20.722 13.6532 21.191C13.6532 21.66 13.2722 22.041 12.8032 22.041ZM18.5142 31.76H15.9672C15.4972 31.76 15.1172 31.38 15.1172 30.911C15.1172 30.441 15.4972 30.06 15.9672 30.06H18.5142C18.9842 30.06 19.3642 30.441 19.3642 30.911C19.3632 31.38 18.9832 31.76 18.5142 31.76ZM18.5142 28.52H15.9672C15.4972 28.52 15.1172 28.139 15.1172 27.67C15.1172 27.201 15.4972 26.82 15.9672 26.82H18.5142C18.9842 26.82 19.3642 27.201 19.3642 27.67C19.3642 28.139 18.9832 28.52 18.5142 28.52ZM18.5142 25.28H15.9672C15.4972 25.28 15.1172 24.9 15.1172 24.431C15.1172 23.96 15.4972 23.58 15.9672 23.58H18.5142C18.9842 23.58 19.3642 23.96 19.3642 24.431C19.3632 24.9 18.9832 25.28 18.5142 25.28ZM18.5142 22.041H15.9672C15.4972 22.041 15.1172 21.66 15.1172 21.191C15.1172 20.722 15.4972 20.34 15.9672 20.34H18.5142C18.9842 20.34 19.3642 20.722 19.3642 21.191C19.3642 21.66 18.9832 22.041 18.5142 22.041ZM24.2252 31.76H21.6762C21.2072 31.76 20.8262 31.38 20.8262 30.911C20.8262 30.441 21.2072 30.06 21.6762 30.06H24.2252C24.6942 30.06 25.0752 30.441 25.0752 30.911C25.0742 31.38 24.6932 31.76 24.2252 31.76ZM24.2252 28.52H21.6762C21.2072 28.52 20.8262 28.139 20.8262 27.67C20.8262 27.201 21.2072 26.82 21.6762 26.82H24.2252C24.6942 26.82 25.0752 27.201 25.0752 27.67C25.0752 28.139 24.6932 28.52 24.2252 28.52ZM24.2252 25.28H21.6762C21.2072 25.28 20.8262 24.9 20.8262 24.431C20.8262 23.96 21.2072 23.58 21.6762 23.58H24.2252C24.6942 23.58 25.0752 23.96 25.0752 24.431C25.0742 24.9 24.6932 25.28 24.2252 25.28ZM24.2252 22.041H21.6762C21.2072 22.041 20.8262 21.66 20.8262 21.191C20.8262 20.722 21.2072 20.34 21.6762 20.34H24.2252C24.6942 20.34 25.0752 20.722 25.0752 21.191C25.0752 21.66 24.6932 22.041 24.2252 22.041ZM25.1252 18.38H9.35522V2.771H25.1252V18.38Z" fill="#607D8B"/>
</g>
<defs>
<clipPath id="clip0">
<rect width="34.482" height="34.482" fill="white"/>
</clipPath>
</defs>
</svg>
