<svg xmlns="http://www.w3.org/2000/svg" width="30" height="30" viewBox="0 0 30 30" fill="none"><style>.a{fill:#607D8B;}</style><path d="M19.1 25.3C19.1 26.6 20.2 27.7 21.4 27.7 22.7 27.7 23.8 26.6 23.8 25.3 23.8 24 22.7 23 21.4 23 20.2 23 19.1 24 19.1 25.3ZM21.4 24.1C22.1 24.1 22.6 24.7 22.6 25.3 22.6 26 22.1 26.5 21.4 26.5 20.8 26.5 20.3 26 20.3 25.3 20.3 24.7 20.8 24.1 21.4 24.1Z" class="a"/><path d="M8.6 23C7.3 23 6.2 24 6.2 25.3 6.2 26.6 7.3 27.7 8.6 27.7 9.8 27.7 10.9 26.6 10.9 25.3 10.9 24 9.8 23 8.6 23ZM8.6 26.5C7.9 26.5 7.4 26 7.4 25.3 7.4 24.7 7.9 24.1 8.6 24.1 9.2 24.1 9.7 24.7 9.7 25.3 9.7 26 9.2 26.5 8.6 26.5Z" class="a"/><path d="M0.6 16.8H9.6L11.7 18.9 9.8 20.8C9.4 20.7 9 20.6 8.6 20.6 6 20.6 3.9 22.7 3.9 25.3 3.9 27.9 6 30 8.6 30 11.1 30 13.2 27.9 13.2 25.3 13.2 24.9 13.2 24.5 13.1 24.1L15 22.2 16.9 24.1C16.8 24.5 16.8 24.9 16.8 25.3 16.8 27.9 18.9 30 21.4 30 24 30 26.1 27.9 26.1 25.3 26.1 22.7 24 20.6 21.4 20.6 21 20.6 20.6 20.7 20.2 20.8L18.3 18.9 20.4 16.8H29.4C29.7 16.8 30 16.5 30 16.2V0.6C30 0.3 29.7 0 29.4 0H0.6C0.3 0 0 0.3 0 0.6V5.7C0 6 0.3 6.3 0.6 6.3 0.9 6.3 1.2 6 1.2 5.7V1.2H10.9V1.8C10.9 2.1 11.2 2.3 11.5 2.3 11.8 2.3 12.1 2.1 12.1 1.8V1.2H28.8V15.6H21.6L23.5 13.6C24 13.2 24.3 12.7 24.5 12.1H25.5C25.9 12.1 26.1 11.8 26.1 11.5 26.1 11.2 25.9 10.9 25.5 10.9H24.7C24.7 10.8 24.7 10.8 24.7 10.7 24.7 9.9 24.5 9.1 24 8.4H25.5C25.9 8.4 26.1 8.2 26.1 7.9 26.1 7.5 25.9 7.3 25.5 7.3 25 7.3 15.7 7.3 15 7.3 14.7 7.3 14.4 7.5 14.4 7.9 14.4 8.2 14.7 8.4 15 8.4H22.1L19.7 10.9H15C14.7 10.9 14.4 11.2 14.4 11.5 14.4 11.8 14.7 12.1 15 12.1H18.5L15 15.6H12.1V15C12.1 14.7 11.8 14.4 11.5 14.4 11.2 14.4 10.9 14.7 10.9 15V15.6C10.3 15.6 1.5 15.6 1.2 15.6V10.4C1.2 10 0.9 9.8 0.6 9.8 0.3 9.8 0 10 0 10.4V16.2C0 16.5 0.3 16.8 0.6 16.8ZM8.6 28.8C6.6 28.8 5 27.3 5 25.3 5 23.4 6.6 21.8 8.6 21.8 10.5 21.8 12.1 23.4 12.1 25.3 12.1 27.3 10.5 28.8 8.6 28.8ZM25 25.3C25 27.3 23.4 28.8 21.4 28.8 19.5 28.8 17.9 27.3 17.9 25.3 17.9 23.4 19.5 21.8 21.4 21.8 23.4 21.8 25 23.4 25 25.3ZM19.1 21.3C18.4 21.7 17.8 22.2 17.4 22.9L15.8 21.4 17.5 19.7 19.1 21.3ZM22.7 12.8C21.6 13.9 13.8 21.8 12.6 22.9 12.2 22.2 11.6 21.7 10.9 21.3 11.6 20.6 22.3 9.9 23.1 9.1 23.8 10.2 23.7 11.8 22.7 12.8ZM12.5 18L11.2 16.8H13.8L12.5 18Z" class="a"/><path d="M6.9 10.3C6.6 10.3 6.3 10.1 6.1 9.8 5.9 9.6 5.5 9.5 5.3 9.8 5 10 5 10.3 5.2 10.6 5.5 11 5.9 11.2 6.3 11.3V12C6.3 12.4 6.5 12.6 6.9 12.6 7.2 12.6 7.4 12.4 7.4 12V11.3C8.1 11.1 8.6 10.4 8.6 9.7 8.6 8.7 7.8 7.9 6.9 7.9 6.5 7.9 6.3 7.7 6.3 7.3 6.3 7 6.5 6.8 6.9 6.8 7.1 6.8 7.3 6.9 7.5 7.1 7.7 7.3 8.1 7.3 8.3 7 8.5 6.8 8.5 6.4 8.3 6.2 8 5.9 7.7 5.8 7.4 5.7V5C7.4 4.7 7.2 4.4 6.9 4.4 6.5 4.4 6.3 4.7 6.3 5V5.7C5.6 5.9 5.1 6.6 5.1 7.3 5.1 8.3 5.9 9.1 6.9 9.1 7.2 9.1 7.4 9.4 7.4 9.7 7.4 10 7.2 10.3 6.9 10.3Z" class="a"/><path d="M11.5 6.1C11.8 6.1 12.1 5.8 12.1 5.5V4.2C12.1 3.9 11.8 3.6 11.5 3.6 11.2 3.6 10.9 3.9 10.9 4.2V5.5C10.9 5.8 11.2 6.1 11.5 6.1Z" class="a"/><path d="M10.9 9C10.9 9.3 11.2 9.6 11.5 9.6 11.8 9.6 12.1 9.3 12.1 9V7.9C12.1 7.5 11.8 7.3 11.5 7.3 11.2 7.3 10.9 7.5 10.9 7.9V9Z" class="a"/><path d="M10.9 12.7C10.9 13 11.2 13.2 11.5 13.2 11.8 13.2 12.1 13 12.1 12.7V11.5C12.1 11.2 11.8 10.9 11.5 10.9 11.2 10.9 10.9 11.2 10.9 11.5V12.7Z" class="a"/><path d="M15 4.8H25.5C25.9 4.8 26.1 4.5 26.1 4.2 26.1 3.9 25.9 3.6 25.5 3.6H15C14.7 3.6 14.4 3.9 14.4 4.2 14.4 4.5 14.7 4.8 15 4.8Z" class="a"/><path d="M0.6 8.6C0.9 8.6 1.2 8.4 1.2 8 1.2 7.7 0.9 7.4 0.6 7.4 0.3 7.4 0 7.7 0 8 0 8.4 0.3 8.6 0.6 8.6Z" class="a"/></svg>