<svg xmlns="http://www.w3.org/2000/svg" width="30" height="30" viewBox="0 0 30 30" fill="none"><style>.a{fill:#607D8B;}</style><path d="M26.7 0H9.9C8.1 0 6.6 2 6.6 4.5V5.7C6.6 6.2 6.9 6.5 7.3 6.5 7.6 6.5 7.9 6.2 7.9 5.7V4.5C7.9 3 8.8 1.8 9.9 1.8H26.7C27.8 1.8 28.7 3 28.7 4.5V7.8H20.1 19.9 3.3C1.5 7.8 0 9.9 0 12.4V25.5C0 28 1.5 30 3.3 30H20.1C21.9 30 23.4 28 23.4 25.5V15H28.7V17.6C28.7 19.2 27.8 20.4 26.7 20.4H24.9C24.5 20.4 24.2 20.8 24.2 21.3 24.2 21.8 24.5 22.2 24.9 22.2H26.7C28.5 22.2 30 20.1 30 17.6V4.5C30 2 28.5 0 26.7 0ZM25 13.3H23.6C23.7 13.2 23.7 13.2 23.8 13.1L26.3 9.6H27.7L25.1 13.1C25.1 13.2 25.1 13.2 25 13.3ZM23.3 11.3C23.2 10.7 23 10.1 22.7 9.6H24.5L23.3 11.3ZM22.1 25.5C22.1 27 21.2 28.2 20.1 28.2H3.3C2.2 28.2 1.3 27 1.3 25.5V12.4C1.3 10.8 2.2 9.6 3.3 9.6H19.9 20.1C21.2 9.6 22.1 10.8 22.1 12.4V25.5ZM26.8 13.3L28.5 11V13.3H26.8Z" class="a"/><path d="M8.6 20.9C8.2 20.9 7.9 21.3 7.9 21.8V24.6H4V20.3H6.7C7.1 20.3 7.4 19.9 7.4 19.4 7.4 18.9 7.1 18.5 6.7 18.5H3.3C3 18.5 2.7 18.9 2.7 19.4V25.4C2.7 25.9 3 26.3 3.3 26.3H8.6C8.9 26.3 9.2 25.9 9.2 25.4V21.8C9.2 21.3 8.9 20.9 8.6 20.9Z" class="a"/><path d="M19.8 20.4H12.3C12 20.4 11.7 20.8 11.7 21.3 11.7 21.8 12 22.2 12.3 22.2H19.8C20.2 22.2 20.5 21.8 20.5 21.3 20.5 20.8 20.2 20.4 19.8 20.4Z" class="a"/><path d="M19.8 24.6H12.3C12 24.6 11.7 24.9 11.7 25.4 11.7 25.9 12 26.3 12.3 26.3H19.8C20.2 26.3 20.5 25.9 20.5 25.4 20.5 24.9 20.2 24.6 19.8 24.6Z" class="a"/></svg>