<svg width="92" height="92" viewBox="0 0 92 92" fill="none" xmlns="http://www.w3.org/2000/svg">
<g clip-path="url(#clip0)">
<path d="M46 92C71.4051 92 92 71.4051 92 46C92 20.5949 71.4051 0 46 0C20.5949 0 0 20.5949 0 46C0 71.4051 20.5949 92 46 92Z" fill="#32BA7C"/>
<path d="M34.2461 66.7506L57.8991 90.4036C77.489 85.1796 92 67.3311 92 45.9998C92 45.5645 92 45.1292 92 44.6938L73.4259 27.5708L34.2461 66.7506Z" fill="#0AA06E"/>
<path d="M47.1597 56.3029C49.1913 58.3344 49.1913 61.8171 47.1597 63.8486L42.9515 68.0568C40.92 70.0884 37.4373 70.0884 35.4058 68.0568L16.9768 49.4827C14.9452 47.4511 14.9452 43.9685 16.9768 41.9369L21.185 37.7287C23.2165 35.6972 26.6992 35.6972 28.7307 37.7287L47.1597 56.3029Z" fill="white"/>
<path d="M63.2683 24.2334C65.2998 22.2018 68.7825 22.2018 70.814 24.2334L75.0222 28.4416C77.0538 30.4731 77.0538 33.9558 75.0222 35.9873L43.0979 67.7665C41.0664 69.7981 37.5837 69.7981 35.5522 67.7665L31.344 63.5583C29.3124 61.5268 29.3124 58.0441 31.344 56.0126L63.2683 24.2334Z" fill="white"/>
</g>
<defs>
<clipPath id="clip0">
<rect width="92" height="92" fill="white"/>
</clipPath>
</defs>
</svg>
