<svg xmlns="http://www.w3.org/2000/svg" width="30" height="30" viewBox="0 0 30 30" fill="none"><style>.a{fill:#607D8B;}</style><path d="M25 5.3V2.5C25 1.1 23.9 0 22.5 0H2.5C1.1 0 0 1.1 0 2.5V13.5C0 14.8 1 15.8 2.2 16L4.1 20.9C4.6 22.1 6.1 22.8 7.4 22.3L19.1 17.8C18.3 19.9 18.5 22.3 19.7 24.2L20 24.6V29.5C20 29.8 20.2 30 20.5 30H29.5C29.8 30 30 29.8 30 29.5V13C30 11.3 29.3 9.6 28.1 8.4L25 5.3ZM25 8.3L26.5 12.2C26.8 13 26.4 13.9 25.7 14.2L24.8 14.5C24.9 14.2 25 13.8 25 13.5V8.3ZM1 13.5V2.5C1 1.7 1.7 1 2.5 1H22.5C23.3 1 24 1.7 24 2.5V5.7H24L24 5.7V13.5C24 13.6 24 13.7 24 13.8L19.4 9.2C18.4 8.2 16.7 8.2 15.7 9.2 14.6 10.2 14.6 11.8 15.5 12.9L17.5 15H2.5C1.7 15 1 14.3 1 13.5ZM7.4 16L3.9 17.4 3.3 16H7.4ZM7 21.4C6.2 21.7 5.4 21.3 5.1 20.5L4.2 18.3 10.2 16V16H18.4L19.1 16.7 7 21.4ZM29 29H21V25H29V29ZM29 24H20.8L20.6 23.7C19.3 21.7 19.3 19.2 20.4 17.3 20.5 17.1 20.5 16.8 20.4 16.7L16.3 12.2C15.7 11.5 15.7 10.5 16.3 9.9 17 9.2 18 9.2 18.7 9.9L26.6 17.9 27.4 17.1 25.5 15.3 26 15.1C27.3 14.6 27.9 13.2 27.5 11.9L25.8 7.5 27.4 9.1C28.4 10.1 29 11.5 29 13V24Z" class="a"/><path d="M5.7 7C6.4 7 7 6.4 7 5.7V3.3C7 2.6 6.4 2 5.7 2H3.3C2.6 2 2 2.6 2 3.3V5.7C2 6.4 2.6 7 3.3 7H5.7ZM3 5.7V5H4V4H3V3.3C3 3.1 3.1 3 3.3 3H5.7C5.9 3 6 3.1 6 3.3V4H5V5H6V5.7C6 5.9 5.9 6 5.7 6H3.3C3.1 6 3 5.9 3 5.7Z" class="a"/><path d="M2.5 8.5H4.5V9.5H2.5V8.5Z" class="a"/><path d="M2.5 11.5H4.5V12.5H2.5V11.5Z" class="a"/><path d="M11.5 11.5H13.5V12.5H11.5V11.5Z" class="a"/><path d="M5.5 8.5H7.5V9.5H5.5V8.5Z" class="a"/><path d="M8.5 8.5H10.5V9.5H8.5V8.5Z" class="a"/><path d="M11.5 8.5H13.5V9.5H11.5V8.5Z" class="a"/><path d="M21 2.5H22V4H21V2.5Z" class="a"/><path d="M19 2.5H20V4H19V2.5Z" class="a"/><path d="M17 2.5H18V4H17V2.5Z" class="a"/><path d="M15 2.5H16V4H15V2.5Z" class="a"/><path d="M22 26H23V27H22V26Z" class="a"/></svg>
 