<svg xmlns="http://www.w3.org/2000/svg" width="41" height="40" viewBox="0 0 41 40" fill="none"><style>.a{fill:#131D33;}</style><path d="M5.4 4.7V39.3C5.4 39.7 5.7 40 6.1 40H31.4C31.8 40 32.1 39.7 32.1 39.3V11.3C32.1 11.3 32.1 11.3 32.1 11.3 32.1 11.2 32 11.2 32 11.1 32 11.1 32 11.1 32 11.1 32 11 31.9 10.9 31.9 10.9L25.2 4.2C25.1 4.1 25.1 4.1 25 4.1 25 4.1 25 4 24.9 4 24.9 4 24.8 4 24.8 4 24.8 4 24.8 4 24.7 4H6.1C5.7 4 5.4 4.3 5.4 4.7ZM29.8 10.7H25.4V6.3L29.8 10.7ZM6.7 5.3H24.1V11.3C24.1 11.7 24.4 12 24.7 12H30.7V38.6H6.7V5.3Z" class="a"/><path d="M33.4 34.6V36H35.4C35.8 36 36.1 35.7 36.1 35.3V0.7C36.1 0.3 35.8 0 35.4 0H10.1C9.7 0 9.4 0.3 9.4 0.7V2.7H10.7V1.3H34.7V34.6H33.4Z" class="a"/><path d="M10.7 13.3H26.7V14.7H10.7V13.3Z" class="a"/><path d="M10.7 9.3H16.1V10.7H10.7V9.3Z" class="a"/><path d="M10.7 17.3H21.4V18.7H10.7V17.3Z" class="a"/><path d="M22.7 17.3H26.7V18.7H22.7V17.3Z" class="a"/><path d="M10.7 21.3H26.7V22.7H10.7V21.3Z" class="a"/><path d="M10.7 29.3H26.7V30.7H10.7V29.3Z" class="a"/><path d="M16.7 25.3H26.7V26.7H16.7V25.3Z" class="a"/><path d="M10.7 25.3H15.4V26.7H10.7V25.3Z" class="a"/><path d="M10.7 33.3H13.4V34.6H10.7V33.3Z" class="a"/><path d="M14.7 33.3H26.7V34.6H14.7V33.3Z" class="a"/></svg>