<svg xmlns="http://www.w3.org/2000/svg" width="40" height="40" viewBox="0 0 40 40" fill="none"><style>.a{fill:#131D33;}</style><g clip-path="url(#clip0)"><path d="M20 10.5L34.3 22.3C34.3 22.3 34.3 22.3 34.3 22.3 34.3 22.4 34.3 22.4 34.3 22.4V34.3C34.3 34.8 34.1 35.1 33.8 35.4 33.5 35.8 33.1 35.9 32.7 35.9H23.2V26.4H16.8V35.9H7.3C6.9 35.9 6.5 35.8 6.2 35.4 5.9 35.1 5.7 34.8 5.7 34.3V22.4C5.7 22.4 5.7 22.3 5.7 22.3L20 10.5Z" class="a"/><path d="M0.3 19.6L5.7 15.1V5C5.7 4.7 5.8 4.5 5.9 4.4 6.1 4.2 6.3 4.2 6.5 4.2H11.3C11.5 4.2 11.7 4.2 11.8 4.4 12 4.5 12.1 4.7 12.1 5V9.8L18.1 4.7C18.6 4.3 19.3 4.1 20 4.1 20.7 4.1 21.4 4.3 21.9 4.7L39.7 19.6C39.9 19.7 40 19.9 40 20.1 40 20.3 40 20.5 39.8 20.7L38.3 22.5C38.2 22.7 38 22.8 37.8 22.8 37.6 22.8 37.4 22.8 37.2 22.6L20 8.3 2.8 22.6C2.7 22.8 2.5 22.8 2.3 22.8H2.2C2 22.8 1.8 22.7 1.7 22.5L0.2 20.7C0 20.5 0 20.3 0 20.1 0 19.9 0.1 19.7 0.3 19.6Z" class="a"/></g><defs><clipPath><rect width="40" height="40" transform="matrix(-1 0 0 1 40 0)" fill="white"/></clipPath></defs></svg>