<svg xmlns="http://www.w3.org/2000/svg" width="32" height="32" viewBox="0 0 32 32" fill="none"><style>.a{fill:black;}</style><g clip-path="url(#clip0)"><path d="M25.1 21.5C25 21.5 24.9 21.5 24.8 21.4L19 16C18.8 15.8 18.8 15.5 19 15.3 19.2 15.1 19.5 15.1 19.7 15.2L25.5 20.6C25.7 20.8 25.7 21.2 25.5 21.4 25.4 21.5 25.2 21.5 25.1 21.5Z" class="a"/><path d="M5.9 21.5C5.8 21.5 5.6 21.5 5.5 21.4 5.3 21.2 5.4 20.8 5.6 20.6L11.3 15.2C11.5 15.1 11.8 15.1 12 15.3 12.2 15.5 12.2 15.8 12 16L6.2 21.4C6.1 21.5 6 21.5 5.9 21.5Z" class="a"/><path d="M28.5 26.5H2.5C1.1 26.5 0 25.4 0 24V7C0 5.6 1.1 4.5 2.5 4.5H28.5C29.9 4.5 31 5.6 31 7V24C31 25.4 29.9 26.5 28.5 26.5ZM2.5 5.5C1.7 5.5 1 6.2 1 7V24C1 24.9 1.7 25.5 2.5 25.5H28.5C29.3 25.5 30 24.9 30 24V7C30 6.2 29.3 5.5 28.5 5.5H2.5Z" class="a"/><path d="M15.5 18C14.8 18 14.2 17.8 13.7 17.4L0.8 6.2C0.6 6 0.6 5.7 0.8 5.4 1 5.2 1.3 5.2 1.5 5.4L14.3 16.6C15 17.2 16 17.2 16.7 16.6L29.5 5.4C29.7 5.2 30 5.3 30.2 5.5 30.4 5.7 30.4 6 30.2 6.2L17.3 17.4C16.8 17.8 16.2 18 15.5 18Z" class="a"/></g><defs><clipPath><rect width="31" height="31" fill="white"/></clipPath></defs></svg>