<svg xmlns="http://www.w3.org/2000/svg" width="37" height="37" viewBox="0 0 37 37" fill="none"><style>.a{fill:#131D33;}</style><path d="M1.4 9.4H35.6C36.4 9.4 37 8.8 37 8 37 7.3 36.4 6.6 35.6 6.6H1.4C0.6 6.6 0 7.3 0 8 0 8.8 0.6 9.4 1.4 9.4Z" class="a"/><path d="M1.1 20.2H26.9C27.5 20.2 27.9 19.6 27.9 18.8 27.9 18.1 27.5 17.5 26.9 17.5H1.1C0.5 17.5 0 18.1 0 18.8 0 19.6 0.5 20.2 1.1 20.2Z" class="a"/><path d="M0.7 30.7H17.5C17.8 30.7 18.2 30.1 18.2 29.3 18.2 28.6 17.8 27.9 17.5 27.9H0.7C0.3 27.9 0 28.6 0 29.3 0 30.1 0.3 30.7 0.7 30.7Z" class="a"/></svg>


