<svg xmlns="http://www.w3.org/2000/svg" width="30" height="30" viewBox="0 0 30 30" fill="none"><g clip-path="url(#clip0)"><path d="M24.1 30C22.9 30 21.4 29.7 19.7 29.1 16.1 27.7 12.1 25 8.6 21.4 5 17.9 2.3 13.9 0.9 10.3 -0.3 7-0.3 4.3 0.9 3 1.1 2.9 1.3 2.7 1.5 2.5 2.6 1.3 3.9-0.1 5.6 0 6.8 0.1 7.9 0.8 9.1 2.2 12.5 6.5 10.9 8 9.1 9.8L8.8 10.1C8.5 10.4 8 11.7 13.1 16.9 14.8 18.6 16.2 19.8 17.4 20.5 18.1 21 19.4 21.7 19.9 21.2L20.2 20.8C22 19.1 23.5 17.5 27.8 20.9 29.2 22.1 29.9 23.2 30 24.4 30.1 26.1 28.7 27.4 27.5 28.5 27.3 28.7 27.1 28.9 27 29.1 26.3 29.7 25.4 30 24.1 30ZM5.5 1C4.3 1 3.2 2.2 2.2 3.2 2 3.4 1.8 3.6 1.6 3.8 0.7 4.7 0.8 7.1 1.9 9.9 3.2 13.4 5.8 17.3 9.3 20.7 12.7 24.2 16.6 26.8 20.1 28.1 22.9 29.2 25.3 29.3 26.2 28.4 26.4 28.2 26.6 28 26.8 27.8 27.9 26.8 29 25.7 29 24.5 29 23.6 28.3 22.7 27.1 21.7 23.6 18.9 22.6 19.9 21 21.6L20.6 21.9C19.8 22.7 18.6 22.5 16.8 21.4 15.6 20.6 14.1 19.3 12.4 17.6 8.1 13.3 6.8 10.7 8.1 9.4L8.4 9C10.1 7.4 11.1 6.4 8.3 2.9 7.3 1.7 6.4 1 5.5 1 5.5 1 5.5 1 5.5 1Z" fill="black"/></g><defs><clipPath><rect width="30" height="30" fill="white"/></clipPath></defs></svg>