<svg xmlns="http://www.w3.org/2000/svg" width="40" height="40" viewBox="0 0 40 40" fill="none"><style>.a{fill:#FA9928;}</style><path d="M37.9 15.6H34.2C33.6 15.6 33.1 15.2 32.9 14.7 32.6 14.1 32.8 13.5 33.2 13.1L35.8 10.5C36.2 10.1 36.4 9.6 36.4 9 36.4 8.5 36.2 7.9 35.8 7.5L32.5 4.2C31.7 3.4 30.3 3.4 29.5 4.2L26.9 6.8C26.5 7.2 25.9 7.4 25.3 7.1 24.8 6.9 24.4 6.4 24.4 5.8V2.1C24.4 0.9 23.5 0 22.4 0H17.6C16.5 0 15.6 0.9 15.6 2.1V5.8C15.6 6.4 15.2 6.9 14.7 7.1 14.1 7.4 13.5 7.2 13.1 6.8L10.5 4.2C9.7 3.4 8.3 3.4 7.5 4.2L4.2 7.5C3.8 7.9 3.6 8.5 3.6 9 3.6 9.6 3.8 10.1 4.2 10.5L6.8 13.1C7.2 13.5 7.4 14.1 7.1 14.7 6.9 15.2 6.4 15.6 5.8 15.6H2.1C0.9 15.6 0 16.5 0 17.6V22.4C0 23.5 0.9 24.4 2.1 24.4H5.8C6.4 24.4 6.9 24.8 7.1 25.3 7.4 25.9 7.2 26.5 6.8 26.9L4.2 29.5C3.8 29.9 3.6 30.4 3.6 31 3.6 31.5 3.8 32.1 4.2 32.5L7.5 35.8C8.3 36.6 9.7 36.6 10.5 35.8L13.1 33.2C13.5 32.8 14.1 32.6 14.7 32.9 15.2 33.1 15.6 33.6 15.6 34.2V37.9C15.6 39.1 16.5 40 17.6 40H22.4C23.5 40 24.4 39.1 24.4 37.9V34.2C24.4 33.6 24.8 33.1 25.3 32.9 25.9 32.6 26.5 32.8 26.9 33.2L29.5 35.8C30.3 36.6 31.7 36.6 32.5 35.8L35.8 32.5C36.2 32.1 36.4 31.5 36.4 31 36.4 30.4 36.2 29.9 35.8 29.5L33.2 26.9C32.8 26.5 32.6 25.9 32.9 25.3 33.1 24.8 33.6 24.4 34.2 24.4H37.9C39.1 24.4 40 23.5 40 22.4V17.6C40 16.5 39.1 15.6 37.9 15.6ZM38.5 22.4C38.5 22.7 38.3 23 37.9 23H34.2C33 23 32 23.7 31.5 24.8 31 25.9 31.3 27.1 32.1 27.9L34.8 30.6C35 30.8 35 31.2 34.8 31.4L31.4 34.8C31.2 35 30.8 35 30.6 34.8L27.9 32.1C27.1 31.3 25.9 31 24.8 31.5 23.7 32 23 33 23 34.2V37.9C23 38.3 22.7 38.5 22.4 38.5H17.6C17.3 38.5 17 38.3 17 37.9V34.2C17 33 16.3 32 15.2 31.5 14.9 31.3 14.5 31.3 14.1 31.3 13.3 31.3 12.6 31.6 12.1 32.1L9.4 34.8C9.2 35 8.8 35 8.6 34.8L5.2 31.4C5 31.2 5 30.8 5.2 30.6L7.9 27.9C8.7 27.1 9 25.9 8.5 24.8 8 23.7 7 23 5.8 23H2.1C1.7 23 1.5 22.7 1.5 22.4V17.6C1.5 17.3 1.7 17 2.1 17H5.8C7 17 8 16.3 8.5 15.2 9 14.1 8.7 12.9 7.9 12.1L5.2 9.4C5 9.2 5 8.8 5.2 8.6L8.6 5.2C8.8 5 9.2 5 9.4 5.2L12.1 7.9C12.9 8.7 14.1 9 15.2 8.5 16.3 8 17 7 17 5.8V2.1C17 1.7 17.3 1.5 17.6 1.5H22.4C22.7 1.5 23 1.7 23 2.1V5.8C23 7 23.7 8 24.8 8.5 25.9 9 27.1 8.7 27.9 7.9L30.6 5.2C30.8 5 31.2 5 31.4 5.2L34.8 8.6C35 8.8 35 9.2 34.8 9.4L32.1 12.1C31.3 12.9 31 14.1 31.5 15.2 32 16.3 33 17 34.2 17H37.9C38.3 17 38.5 17.3 38.5 17.6V22.4Z" class="a"/><path d="M20 13.3C16.3 13.3 13.3 16.3 13.3 20 13.3 23.7 16.3 26.7 20 26.7 23.7 26.7 26.7 23.7 26.7 20 26.7 16.3 23.7 13.3 20 13.3ZM20 25.2C17.1 25.2 14.8 22.9 14.8 20 14.8 17.1 17.1 14.8 20 14.8 22.9 14.8 25.2 17.1 25.2 20 25.2 22.9 22.9 25.2 20 25.2Z" class="a"/></svg>

