<svg xmlns="http://www.w3.org/2000/svg" width="30" height="30" viewBox="0 0 30 30" fill="none"><style>.a{fill:#607D8B;}</style><path d="M0 27.3C0 28.8 1.3 30 2.9 30H20.2C21.6 30 22.8 29 23.1 27.8 24.5 27.6 25.5 26.5 25.5 25.2V13.2H26.9C27 13.2 27.1 13.2 27.2 13.1L29.8 11.5C29.9 11.4 30 11.3 30 11.1 30 11 29.9 10.8 29.8 10.7L27.2 9.1C27.1 9 27 9 26.9 9H25.5V6.4C25.5 6.2 25.4 6.1 25.3 6L19.5 0.3C19.4 0.2 19.4 0.2 19.3 0.2L19.3 0.1C19.2 0.1 19.1 0 19 0H5.3C3.9 0 2.7 1 2.5 2.2 1.1 2.4 0 3.5 0 4.8V27.3ZM8.6 12.2V10H26.4V12.2H8.6ZM27.4 11.8V10.4L28.6 11.1 27.4 11.8ZM19.6 1.7L23.8 5.9H20.2C20.1 5.9 19.9 5.8 19.8 5.7 19.6 5.6 19.6 5.4 19.6 5.2V1.7ZM5.3 1H18.6V5.2C18.6 6.1 19.3 6.8 20.2 6.8H24.5V9H8.1C7.8 9 7.6 9.2 7.6 9.5V9.6L6.1 9.6H6.1C5.8 9.6 5.6 9.8 5.6 10.1L5.6 12.2C5.6 12.4 5.8 12.6 6.1 12.6H7.6V12.7C7.6 13 7.9 13.2 8.1 13.2H9.2L9.2 13.9C9.2 14.2 9.3 14.5 9.5 14.7 9.7 14.8 9.9 14.9 10.2 14.9H16.3C16.6 14.9 16.8 14.7 16.8 14.5 16.8 14.2 16.6 14 16.3 14H10.2C10.2 13.9 10.2 13.9 10.2 13.9L10.2 13.2H24.5V25.2C24.5 26.1 23.7 26.9 22.6 26.9H5.3C4.3 26.9 3.4 26.1 3.4 25.2V2.7C3.4 2.7 3.4 2.7 3.4 2.7 3.4 2.6 3.4 2.6 3.4 2.6 3.5 1.7 4.3 1 5.3 1ZM7.6 11.7H6.6L6.6 10.5 7.6 10.6V11.7ZM1 4.8C1 4.1 1.6 3.4 2.4 3.2V25.2C2.4 26.6 3.7 27.8 5.3 27.8H22C21.8 28.5 21.1 29 20.2 29H2.9C1.9 29 1 28.3 1 27.3V4.8Z" class="a"/><path d="M6.1 17.2H14.4C14.7 17.2 14.9 17 14.9 16.7 14.9 16.4 14.7 16.2 14.4 16.2H6.1C5.8 16.2 5.6 16.4 5.6 16.7 5.6 17 5.8 17.2 6.1 17.2Z" class="a"/><path d="M6.1 19.5H20.6C20.9 19.5 21.1 19.3 21.1 19.1 21.1 18.8 20.9 18.6 20.6 18.6H6.1C5.8 18.6 5.6 18.8 5.6 19.1 5.6 19.3 5.8 19.5 6.1 19.5Z" class="a"/><path d="M6.1 21.9H20.6C20.9 21.9 21.1 21.7 21.1 21.4 21.1 21.1 20.9 20.9 20.6 20.9H6.1C5.8 20.9 5.6 21.1 5.6 21.4 5.6 21.7 5.8 21.9 6.1 21.9Z" class="a"/><path d="M6.1 24.3H20.6C20.9 24.3 21.1 24 21.1 23.8 21.1 23.5 20.9 23.3 20.6 23.3H6.1C5.8 23.3 5.6 23.5 5.6 23.8 5.6 24 5.8 24.3 6.1 24.3Z" class="a"/></svg>
 