<svg xmlns="http://www.w3.org/2000/svg" width="30" height="30" viewBox="0 0 30 30" fill="none"><style>.a{fill:#607D8B;}</style><path d="M22.4 22C22.4 23.4 23.4 24.5 24.8 24.5 26.1 24.5 27.2 23.3 27.2 22 27.2 20.7 26.1 19.6 24.8 19.6 23.4 19.6 22.4 20.7 22.4 22ZM26.3 22C26.3 22.8 25.6 23.5 24.8 23.5 24 23.5 23.3 22.9 23.3 22 23.3 21.2 24 20.5 24.8 20.5 25.6 20.5 26.3 21.2 26.3 22Z" class="a"/><path d="M5.2 4.9C6.5 4.9 7.6 3.8 7.6 2.4 7.6 1.1 6.5 0 5.2 0 3.9 0 2.8 1.1 2.8 2.4 2.8 3.8 3.9 4.9 5.2 4.9ZM5.2 0.9C6 0.9 6.7 1.6 6.7 2.4 6.7 3.3 6 3.9 5.2 3.9 4.4 3.9 3.7 3.3 3.7 2.4 3.7 1.6 4.4 0.9 5.2 0.9Z" class="a"/><path d="M15 26.6H12.9L10.6 24.3C10.4 24.1 10.1 24.1 9.9 24.3 9.8 24.5 9.8 24.8 9.9 25L11.6 26.6H3.8L27.9 7.9C28 7.7 28.1 7.5 28 7.3 28 7.1 27.8 7 27.6 7H18.8L20.4 5.4C20.6 5.2 20.6 4.9 20.4 4.7 20.2 4.5 19.9 4.5 19.7 4.7L17.4 7H15C14.8 7 14.6 7.2 14.6 7.5 14.6 7.7 14.8 7.9 15 7.9H17.4L19.7 10.3C19.8 10.4 20 10.4 20.1 10.4 20.2 10.4 20.3 10.4 20.4 10.3 20.6 10.1 20.6 9.8 20.4 9.6L18.8 7.9H26.2L2.1 26.7C2 26.8 1.9 27 2 27.2 2 27.4 2.2 27.6 2.4 27.6H11.6L9.9 29.2C9.8 29.4 9.8 29.7 9.9 29.9 10 30 10.1 30 10.3 30 10.4 30 10.5 30 10.6 29.9L12.9 27.6H15C15.3 27.6 15.5 27.3 15.5 27.1 15.5 26.8 15.3 26.6 15 26.6Z" class="a"/><path d="M10.4 9.9V5C10.4 4.8 10.2 4.6 9.9 4.6 9.7 4.6 9.5 4.8 9.5 5V9.5H0.9V5C0.9 4.8 0.7 4.6 0.5 4.6 0.2 4.6 0 4.8 0 5V9.9C0 10.2 0.2 10.4 0.5 10.4H9.9C10.2 10.4 10.4 10.2 10.4 9.9Z" class="a"/><path d="M29.5 24.1C29.3 24.1 29.1 24.4 29.1 24.6V29H20.5V24.6C20.5 24.4 20.3 24.1 20.1 24.1 19.8 24.1 19.6 24.4 19.6 24.6V29.5C19.6 29.8 19.8 30 20.1 30H29.5C29.8 30 30 29.8 30 29.5V24.6C30 24.4 29.8 24.1 29.5 24.1Z" class="a"/></svg>
