<svg xmlns="http://www.w3.org/2000/svg" width="31" height="30" viewBox="0 0 31 30" fill="none"><path d="M25.7 7.5C25.3 3.3 21.9 0 17.9 0 15 0 12.4 1.6 11 4.3 10.5 4.1 10 4.1 9.5 4.1 6.3 4.2 3.6 7.1 3.7 10.7 3.7 12.4 4.3 14 5.4 15.2 6.6 16.4 8.1 17.1 9.7 17.1H11.6V23C11.6 23.3 11.9 23.5 12.1 23.5 13.2 23.5 14.2 23.5 15.3 23.5 16.3 23.5 17.3 23.5 18.4 23.5 19.4 23.5 20.5 23.5 21.5 23.5 21.6 23.5 21.7 23.5 21.8 23.4 21.8 23.4 21.8 23.4 21.8 23.4 21.8 23.4 21.8 23.4 21.8 23.4 21.8 23.4 21.8 23.4 21.8 23.4 21.8 23.4 21.8 23.4 21.8 23.4 21.8 23.4 21.8 23.4 21.8 23.4 21.8 23.4 21.8 23.4 21.8 23.4 21.8 23.4 21.8 23.4 21.8 23.4 21.8 23.4 21.8 23.4 21.8 23.4 21.8 23.4 21.8 23.4 21.8 23.4 21.8 23.4 21.8 23.4 21.8 23.4 21.8 23.4 21.8 23.4 21.8 23.4H21.8C21.8 23.4 21.8 23.4 21.8 23.4H21.8C21.8 23.4 21.8 23.4 21.8 23.4 21.8 23.4 21.8 23.4 21.8 23.4 21.8 23.4 21.8 23.4 21.8 23.4 21.8 23.4 21.8 23.4 21.8 23.4 21.8 23.4 21.8 23.4 21.8 23.4 21.8 23.4 21.8 23.4 21.8 23.4 21.8 23.4 21.8 23.4 21.8 23.4L21.8 23.4C21.8 23.4 21.8 23.4 21.8 23.4L21.8 23.4C21.8 23.4 21.8 23.4 21.8 23.4 21.8 23.4 21.8 23.4 21.8 23.4 21.8 23.4 21.8 23.4 21.8 23.4H21.8C21.8 23.4 21.8 23.4 21.8 23.4H21.8C21.8 23.4 21.8 23.4 21.8 23.4 21.8 23.4 21.8 23.4 21.8 23.4H21.8C21.8 23.4 21.8 23.4 21.8 23.4L21.8 23.4C21.8 23.4 21.8 23.4 21.8 23.4 21.8 23.4 21.8 23.4 21.9 23.4 21.9 23.4 21.9 23.4 21.9 23.4 21.9 23.4 21.9 23.4 21.9 23.4L21.9 23.3 21.9 23.3C21.9 23.3 21.9 23.3 21.9 23.3 21.9 23.3 21.9 23.3 21.9 23.3 21.9 23.3 21.9 23.3 21.9 23.3 21.9 23.3 21.9 23.3 21.9 23.3V23.3C22 23.3 22 23.1 22 23V23C22 23 22 23 22 23V23C22 23 22 23 22 23 22 23 22 23 22 23V23C22 23 22 23 22 23V23C22 23 22 23 22 23 22 23 22 23 22 23 22 23 22 23 22 23 22 23 22 23 22 23 22 23 22 23 22 23 22 23 22 23 22 23 22 23 22 23 22 23 22 23 22 23 22 23 22 23 22 23 22 23 22 23 22 23 22 23 22 23 22 23 22 23 22 23 22 23 22 23 22 23 22 23 22 23 22 23 22 23 22 23 22 23 22 23 22 23V22.1C22 21.8 21.8 21.6 21.5 21.6 21.2 21.6 21 21.8 21 22.1V22.4C19.1 22.4 17.1 22.4 15.3 22.4 14.4 22.4 13.5 22.4 12.7 22.4V15.8H21V17.6C21 18 21.2 18.2 21.5 18.2 21.8 18.2 22 18 22 17.6V17.1H25.6C28 17.1 30 14.9 30 12.3 30 9.7 28.1 7.6 25.7 7.5ZM18.8 14.7V10C18.8 8.8 17.9 7.9 16.8 7.9 16.3 7.9 15.8 8.1 15.5 8.5 15.1 8.9 14.9 9.4 14.9 10V13H13.7V10C13.7 9.1 14 8.2 14.6 7.6 15.2 6.9 16 6.6 16.8 6.6 18.6 6.6 20 8.1 20 10V14.7H18.8ZM25.6 16H22V15.3C22 14.9 21.8 14.7 21.5 14.7H21V10C21 7.5 19.2 5.5 16.8 5.5 15.7 5.5 14.7 5.9 13.9 6.8 13.1 7.6 12.6 8.8 12.6 10V13.5C12.6 13.9 12.9 14.1 13.2 14.1H15.4C15.7 14.1 15.9 13.9 15.9 13.5V10C15.9 9.7 16 9.5 16.2 9.3 16.4 9.1 16.6 9 16.8 9 17.3 9 17.8 9.5 17.8 10V14.7H12.1C11.9 14.7 11.6 14.9 11.6 15.3V16H9.7C8.4 16 7.1 15.4 6.2 14.4 5.2 13.4 4.7 12.1 4.7 10.6 4.7 7.7 6.8 5.3 9.6 5.2 10.1 5.2 10.6 5.3 11.1 5.4 11.4 5.5 11.6 5.4 11.7 5.2 12.9 2.7 15.3 1.1 17.9 1.1 21.4 1.1 24.3 4 24.7 7.7 24 7.9 22.8 8.4 22.1 9.6 22 9.9 22.1 10.2 22.3 10.4 22.4 10.4 22.5 10.5 22.6 10.5 22.8 10.5 22.9 10.4 23 10.2 23.7 8.9 25.2 8.7 25.3 8.7 25.4 8.7 25.5 8.7 25.6 8.7 27.5 8.7 29 10.3 29 12.3 29 14.3 27.5 16 25.6 16Z" fill="#607D8B"/></svg>
 
