<svg xmlns="http://www.w3.org/2000/svg" width="30" height="30" viewBox="0 0 30 30" fill="none"><path d="M28.7 12.5H28.2V11 5.8C28.2 4 27 2.6 25.5 2.6H13.4L5.2 0C5.2 0 5.2 0 5.2 0 5.2 0 5.2 0 5.2 0 5.2 0 5.2 0 5.2 0 5.2 0 5.2 0 5.2 0 5.2 0 5.2 0 5.2 0 5.2 0 5.2 0 5.2 0 5.1 0 5.1 0 5.1 0 5.1 0 5.1 0 5.1 0 5.1 0 5.1 0 5.1 0 5.1 0 5.1 0 5.1 0 5.1 0 5.1 0 5 0 5 0 5 0 5 0 5 0 5 0 5 0 5 0 5 0 5 0 5 0 5 0 5 0 5 0 5 0 4.9 0 4.9 0 4.9 0.1 4.9 0.1 4.9 0.1 4.9 0.1 4.9 0.1 4.9 0.1 4.9 0.1 4.9 0.1 4.9 0.1 4.9 0.1 4.9 0.1 4.9 0.1 4.9 0.1 4.9 0.1 4.9 0.1 4.8 0.1 4.8 0.1 4.8 0.1 4.8 0.1 4.8 0.1 4.8 0.1 4.8 0.1 4.8 0.2 4.8 0.2 4.8 0.2 4.8 0.2 4.8 0.2 4.8 0.2 4.8 0.2 4.8 0.2 4.8 0.2 4.8 0.2 4.8 0.2 4.8 0.2 4.8 0.2 4.8 0.2 4.7 0.2 4.7 0.3 4.7 0.3 4.7 0.3 4.7 0.3 4.7 0.3 4.7 0.3 4.7 0.3 4.7 0.3 4.7 0.3 4.7 0.3 4.7 0.3 4.7 0.3 4.7 0.3 4.7 0.3 4.7 0.4 4.7 0.4 4.7 0.4 4.7 0.4 4.7 0.4 4.7 0.4 4.7 0.4 4.7 0.4L4.2 2.6H2.8C1.3 2.6 0 4 0 5.8 0 5.8 0 5.8 0 5.8V22.9C0 23.2 0.2 23.4 0.4 23.4 0.7 23.4 0.9 23.2 0.9 22.9V8C1.4 8.6 2 8.9 2.8 8.9H25.5C25.5 8.9 25.5 8.9 25.5 8.9 26.5 8.9 27.4 9.9 27.4 11V14.5H22.5C22.5 14.5 22.5 14.5 22.5 14.5 22.5 14.5 22.5 14.5 22.5 14.5 22.5 14.5 22.5 14.5 22.4 14.5 22.4 14.5 22.4 14.5 22.4 14.5 22.4 14.5 22.4 14.5 22.4 14.5 22.4 14.5 22.4 14.5 22.4 14.5 22.4 14.5 22.4 14.5 22.4 14.5 22.4 14.5 22.4 14.5 22.4 14.5 22.4 14.5 22.3 14.6 22.3 14.6 22.3 14.6 22.3 14.6 22.3 14.6 22.3 14.6 22.3 14.6 22.3 14.6 22.3 14.6 22.3 14.6 22.3 14.6 22.3 14.6 22.3 14.6 22.3 14.6 22.3 14.6 22.3 14.6 22.3 14.6 22.2 14.6 22.2 14.6 22.2 14.6 22.2 14.6 22.2 14.6 22.2 14.6 22.2 14.7 22.2 14.7 22.2 14.7 22.2 14.7 22.2 14.7 22.2 14.7 22.2 14.7 22.2 14.7 22.2 14.7 22.2 14.7 22.2 14.7 22.2 14.7L19.8 18.7C19.8 18.7 19.8 18.7 19.8 18.8 19.8 18.8 19.8 18.8 19.8 18.8 19.8 18.8 19.8 18.8 19.8 18.8 19.8 18.8 19.8 18.8 19.8 18.9 19.8 18.9 19.8 18.9 19.8 18.9 19.8 18.9 19.8 18.9 19.7 18.9 19.7 18.9 19.7 18.9 19.7 18.9 19.7 18.9 19.7 18.9 19.7 18.9 19.7 18.9 19.7 18.9 19.7 19 19.7 19 19.7 19 19.7 19 19.7 19 19.7 19 19.7 19 19.7 19 19.7 19 19.7 19 19.8 19 19.8 19 19.8 19.1 19.8 19.1 19.8 19.1 19.8 19.1 19.8 19.1 19.8 19.1 19.8 19.1 19.8 19.1 19.8 19.1 19.8 19.1 19.8 19.1 19.8 19.1 19.8 19.1 19.8 19.2 19.8 19.2 19.8 19.2L22.2 23.2C22.2 23.2 22.2 23.2 22.2 23.2 22.2 23.2 22.2 23.2 22.2 23.2 22.2 23.2 22.2 23.2 22.2 23.2 22.2 23.3 22.2 23.3 22.2 23.3 22.2 23.3 22.2 23.3 22.2 23.3 22.3 23.3 22.3 23.3 22.3 23.3 22.3 23.3 22.3 23.3 22.3 23.3 22.3 23.3 22.3 23.3 22.3 23.3 22.3 23.3 22.3 23.4 22.3 23.4 22.3 23.4 22.4 23.4 22.4 23.4 22.4 23.4 22.4 23.4 22.4 23.4 22.4 23.4 22.4 23.4 22.4 23.4 22.4 23.4 22.4 23.4 22.4 23.4 22.4 23.4 22.5 23.4 22.5 23.4 22.5 23.4 22.5 23.4 22.5 23.4 22.5 23.4 22.5 23.4 22.5 23.4 22.5 23.4 22.5 23.4 22.5 23.4 22.5 23.4 22.5 23.4 22.5 23.4H27.4V26.9C27.4 28 26.5 29 25.5 29H2.8C1.7 29 0.9 28 0.9 26.9 0.9 26.9 0.9 26.9 0.9 26.9V24.9C0.9 24.6 0.7 24.4 0.4 24.4 0.2 24.4 0 24.6 0 24.9V26.9C0 26.9 0 26.9 0 26.9 0 28.6 1.3 30 2.8 30H25.5C27 30 28.2 28.6 28.2 26.9 28.2 26.9 28.2 26.9 28.2 26.9V23.4H28.7C29.4 23.4 30 22.7 30 21.9V14C30 13.2 29.4 12.5 28.7 12.5ZM5.4 1.1L13.2 3.6C13.2 3.6 13.2 3.6 13.2 3.6L18.4 5.3H4.5L5.4 1.1ZM27.4 8.8C26.9 8.2 26.2 7.9 25.5 7.9 25.5 7.9 25.5 7.9 25.5 7.9H2.8C1.7 7.9 0.9 7 0.9 5.8 0.9 4.6 1.7 3.6 2.8 3.6H4L3.6 5.3H2.8C2.5 5.3 2.3 5.5 2.3 5.8 2.3 6 2.5 6.3 2.8 6.3H4C4 6.3 4 6.3 4 6.3 4 6.3 4 6.3 4 6.3H21.5C21.5 6.3 21.5 6.3 21.5 6.3 21.5 6.3 21.5 6.3 21.5 6.3H24.9C25.1 6.3 25.3 6 25.3 5.8 25.3 5.5 25.1 5.3 24.9 5.3H21.6L16.5 3.6H25.5C26.5 3.6 27.4 4.6 27.4 5.8V8.8ZM29.1 21.9C29.1 22.2 28.9 22.4 28.7 22.4H22.8L20.7 19 22.8 15.5H28.7C28.7 15.5 28.7 15.5 28.7 15.5 28.8 15.5 29 15.5 29.1 15.4V21.9ZM28.7 14.5C28.7 14.5 28.7 14.5 28.7 14.5H28.2V13.5H28.7C28.9 13.5 29.1 13.7 29.1 14 29.1 14.3 28.9 14.5 28.7 14.5Z" fill="#607D8B"/></svg>
