<svg xmlns="http://www.w3.org/2000/svg" width="30" height="30" viewBox="0 0 30 30" fill="none"><path d="M15 0H15C6.7 0 0 6.7 0 15 0 18.3 1.1 21.3 2.9 23.8L1 29.4 6.8 27.5C9.1 29.1 12 30 15 30 23.3 30 30 23.3 30 15 30 6.7 23.3 0 15 0Z" fill="#4CAF50"/><path d="M23.7 21.2C23.4 22.2 21.9 23.1 20.8 23.3 20 23.5 19 23.6 15.5 22.2 11.1 20.3 8.3 15.9 8.1 15.6 7.9 15.3 6.3 13.2 6.3 11 6.3 8.9 7.4 7.8 7.8 7.4 8.2 7 8.8 6.9 9.4 6.9 9.5 6.9 9.7 6.9 9.9 6.9 10.3 6.9 10.5 6.9 10.8 7.6 11.2 8.5 12.1 10.6 12.2 10.9 12.3 11.1 12.4 11.4 12.2 11.7 12.1 12 12 12.1 11.7 12.4 11.5 12.6 11.3 12.8 11.1 13.1 10.9 13.3 10.7 13.6 10.9 14 11.2 14.5 12 15.9 13.3 17 15 18.5 16.4 19 16.9 19.2 17.2 19.4 17.6 19.3 17.9 19 18.2 18.7 18.7 18.1 19.1 17.5 19.4 17.1 19.8 17 20.2 17.2 20.6 17.3 22.7 18.4 23.2 18.6 23.6 18.8 23.9 18.9 24 19.1 24.1 19.3 24.1 20.2 23.7 21.2Z" fill="#FAFAFA"/></svg>