<svg xmlns="http://www.w3.org/2000/svg" width="30" height="30" viewBox="0 0 30 30" fill="none"><path d="M28.6 0.3H1.4C0.6 0.3 0 0.9 0 1.7V5.8C0 6.6 0.6 7.2 1.4 7.2H5.6V12.8C4.8 13.7 1.7 17.3 1.4 19.7 1.4 19.8 1.4 19.8 1.4 19.8V29.1C1.4 29.4 1.6 29.7 2 29.7H9.5C9.7 29.7 9.9 29.6 10 29.4L13.2 24.8C13.3 24.8 13.3 24.7 13.3 24.6 13.3 24.5 13.6 23.4 14 21.9H23.8C24.2 21.9 24.4 21.6 24.4 21.3V7.2H28.6C29.4 7.2 30 6.6 30 5.8V1.7C30 0.9 29.4 0.3 28.6 0.3ZM14 15.3C13.6 18.3 12.9 21.3 12.1 24.2L9.2 28.4H2.6V19.9C2.8 18.5 4.4 16.3 5.6 14.8V21.3C5.6 21.6 5.8 21.9 6.2 21.9H8.4C8.5 21.9 8.6 21.9 8.6 21.9L8.7 21.8C8.8 21.8 8.8 21.8 8.8 21.8L8.9 21.7C8.9 21.7 8.9 21.6 9 21.6L9 21.5C9 21.5 9 21.5 9 21.5 9.6 19.2 11 15.2 12 14.3 12.7 13.7 13.1 13.6 13.3 13.6 13.4 13.6 13.5 13.7 13.6 13.8 13.9 14.2 14.1 14.8 14 15.3ZM23.2 20.7H14.3C14.7 19 15.1 17.1 15.3 15.5 15.3 14.6 15.1 13.7 14.6 13 14.3 12.6 13.8 12.4 13.3 12.4 12.5 12.5 11.8 12.8 11.2 13.4 9.8 14.6 8.4 19.2 8 20.7H6.8V4.4H23.2V20.7ZM28.8 5.8C28.8 5.9 28.7 6 28.6 6H24.4V4.4H25.6C25.9 4.4 26.2 4.2 26.2 3.8 26.2 3.5 25.9 3.2 25.6 3.2H4.4C4.1 3.2 3.8 3.5 3.8 3.8 3.8 4.2 4.1 4.4 4.4 4.4H5.6V6H1.4C1.3 6 1.2 6 1.2 5.9V1.7C1.2 1.6 1.3 1.6 1.4 1.6H28.6C28.7 1.6 28.8 1.6 28.8 1.7V5.8Z" fill="#607D8B"/></svg>